<svg width="105" height="24" viewBox="0 0 105 24" fill="none" xmlns="http://www.w3.org/2000/svg">
    <g clip-path="url(#9ihpww29za)" fill="#fff">
        <path d="M71.409 4.343c-2.128 0-3.977.747-5.492 2.223-1.525 1.476-2.297 3.27-2.297 5.33 0 2.338.85 4.259 2.522 5.706 1.513 1.303 3.248 1.964 5.155 1.964 2.152 0 4.013-.745 5.536-2.213 1.517-1.464 2.287-3.273 2.287-5.376s-.767-3.902-2.275-5.39c-1.503-1.487-3.333-2.244-5.436-2.244zm-.085 12.662c-1.302 0-2.466-.481-3.463-1.434-1-.95-1.506-2.178-1.506-3.656 0-1.478.489-2.604 1.457-3.56.966-.965 2.166-1.456 3.57-1.456s2.607.489 3.56 1.456c.961.963 1.448 2.173 1.448 3.596s-.494 2.616-1.465 3.595c-.973.968-2.183 1.457-3.599 1.457M91.257 11.572c.574-.714.855-1.437.855-2.606 0-1.402-.528-2.43-1.489-3.239-.888-.743-2.324-1.119-4.272-1.119h-6.15v14.699h2.713v-6.051h3.287l2.967 6.05h3.152l-3.239-6.385c.937-.266 1.668-.719 2.176-1.351m-1.805-2.7c0 1.394-.886 1.852-2.786 1.852h-3.752V7.167h3.837c1.844 0 2.7.41 2.7 1.703zM105.001 7.163V4.604H93.209v14.699h11.792v-2.558h-9.076v-3.486h8.352v-2.558h-8.352V7.163H105zM52.533 19.307h2.713v-6.013h7.346v-2.56h-7.346V7.167h7.77V4.608H52.532v14.699zM49.372 2.867l-7.963 18.266h2.479L51.86 2.867h-2.488zM34.826 13.275h3.187l-.017.008c.049 1.18-.21 2.096-.968 2.922-.552.604-1.43.848-2.53.848-.747 0-1.39-.146-1.911-.431a3.643 3.643 0 0 1-1.276-1.148 4.911 4.911 0 0 1-.709-1.602 7.478 7.478 0 0 1-.22-1.823c0-.623.075-1.287.22-1.895a5.04 5.04 0 0 1 .71-1.643 3.62 3.62 0 0 1 1.275-1.157c.523-.288 1.166-.431 1.912-.431.803 0 1.5.213 2.067.632.506.376.869.927 1.082 1.638h3.02a5.254 5.254 0 0 0-.644-1.916 5.463 5.463 0 0 0-1.408-1.61 6.264 6.264 0 0 0-1.917-.989 5.617 5.617 0 0 0-.748-.192 8.388 8.388 0 0 0-1.467-.122c-.518 0-1.048.041-1.568.122-.4.063-1 .247-1.46.448a6.533 6.533 0 0 0-2.277 1.632 7.27 7.27 0 0 0-1.423 2.44c-.262.738-.455 1.84-.474 2.406l-.005.17c-.015.433-.022.613.005 1.08.029.52.212 1.629.474 2.362.33.915.808 1.722 1.425 2.4a6.59 6.59 0 0 0 2.28 1.603c.896.386 1.922.582 3.048.582.709 0 1.423-.146 2.12-.436.835-.347 1.406-.769 1.91-1.411l.038-.072.356 1.593h2.009V10.76h-6.11v2.515h-.006zM3.55 3.514A11.86 11.86 0 0 0 0 12a11.86 11.86 0 0 0 3.55 8.484 12.108 12.108 0 0 0 8.573 3.515c3.239 0 6.283-1.248 8.573-3.515A11.86 11.86 0 0 0 24.246 12a11.86 11.86 0 0 0-3.55-8.485A12.108 12.108 0 0 0 12.123 0a12.108 12.108 0 0 0-8.572 3.514zm.925 16.054a10.58 10.58 0 0 1-3.168-7.57A10.58 10.58 0 0 1 4.475 4.43a10.801 10.801 0 0 1 7.648-3.135c2.89 0 5.606 1.113 7.649 3.135A10.58 10.58 0 0 1 22.94 12a10.58 10.58 0 0 1-3.169 7.57 10.801 10.801 0 0 1-7.648 3.135c-2.89 0-5.605-1.114-7.648-3.136z"/>
        <path d="M15.882 8.545h3.105V4.588H17.95l-.165.829c-.29-.37-.612-.626-.963-.772a2.765 2.765 0 0 0-1.067-.22c-.567 0-1.075.098-1.527.292a3.265 3.265 0 0 0-1.145.805 3.56 3.56 0 0 0-.714 1.202 4.216 4.216 0 0 0-.237 1.186 4.218 4.218 0 0 0-.24-1.186 3.54 3.54 0 0 0-.714-1.202 3.305 3.305 0 0 0-1.145-.805 3.837 3.837 0 0 0-1.527-.292c-.358 0-.714.074-1.067.22-.354.146-.673.405-.964.772l-.167-.83H5.273v3.958H8.38V7.347H6.743c.048-.512.22-.905.513-1.176.293-.27.709-.405 1.249-.405.365 0 .677.07.931.211.257.139.463.326.622.558.16.233.276.494.347.784.072.29.108.589.108.895 0 .307-.036.633-.108.932-.073.3-.19.568-.347.805a1.73 1.73 0 0 1-.622.563c-.256.139-.566.21-.931.21-.393 0-.729-.102-1.005-.306-.276-.206-.462-.512-.559-.922H5.387c.041.417.155.786.341 1.107.187.32.424.591.71.81.285.217.607.383.963.495.123.039.25.072.375.096a4.123 4.123 0 0 0-.375.096 3.16 3.16 0 0 0-.963.496 2.737 2.737 0 0 0-.71.81c-.186.32-.3.69-.34 1.106H6.94c.097-.41.283-.716.56-.922.275-.204.609-.307 1.004-.307.365 0 .675.07.931.211.257.139.463.328.622.563.16.235.274.503.347.805.072.3.108.61.108.932 0 .32-.036.606-.108.895-.073.29-.19.552-.347.784a1.76 1.76 0 0 1-.622.558c-.256.141-.566.21-.931.21-.54 0-.956-.133-1.25-.404-.292-.27-.464-.661-.512-1.176h1.636v-1.198H5.273v3.957H6.31l.165-.829c.29.37.612.626.963.772.351.146.707.22 1.068.22.566 0 1.074-.098 1.527-.292a3.267 3.267 0 0 0 1.145-.805c.31-.343.549-.742.713-1.205.134-.371.213-.764.238-1.18.026.416.104.811.237 1.18.165.46.404.863.714 1.205.31.34.692.608 1.145.805.452.194.96.292 1.527.292.358 0 .714-.074 1.067-.22.354-.146.673-.405.964-.771l.167.828h1.035v-3.957H15.88v1.198h1.636c-.048.512-.22.905-.513 1.176-.293.27-.709.405-1.249.405-.365 0-.677-.07-.931-.211a1.761 1.761 0 0 1-.622-.558 2.449 2.449 0 0 1-.349-.784 3.678 3.678 0 0 1-.109-.895c0-.307.036-.633.109-.932.073-.3.189-.568.346-.805a1.75 1.75 0 0 1 .622-.563c.257-.139.566-.21.932-.21.392 0 .728.102 1.004.306.276.206.463.512.56.922h1.553a2.706 2.706 0 0 0-.341-1.107 2.736 2.736 0 0 0-.71-.81 3.133 3.133 0 0 0-.962-.495 3.456 3.456 0 0 0-.376-.096c.126-.026.252-.057.378-.096a3.16 3.16 0 0 0 .963-.496c.286-.218.523-.488.71-.81.186-.32.3-.69.34-1.106h-1.55c-.098.41-.284.716-.56.922-.276.204-.61.307-1.004.307-.366 0-.675-.07-.932-.211a1.77 1.77 0 0 1-.622-.563 2.421 2.421 0 0 1-.346-.805c-.073-.3-.11-.61-.11-.932 0-.32.037-.606.11-.895.072-.29.189-.551.346-.784.16-.232.365-.419.622-.558.257-.139.566-.21.932-.21.54 0 .956.133 1.249.404.293.27.464.661.513 1.176h-1.636v1.198zm-1.656 3.234c.23.1.474.175.733.225-.258.05-.503.125-.733.225a3.3 3.3 0 0 0-1.145.82c-.31.347-.55.756-.714 1.224-.133.376-.21.778-.237 1.204a4.425 4.425 0 0 0-.237-1.204 3.638 3.638 0 0 0-.714-1.225 3.26 3.26 0 0 0-1.142-.819c-.23-.1-.475-.175-.734-.225.26-.05.504-.125.734-.225a3.3 3.3 0 0 0 1.144-.82c.31-.347.55-.756.714-1.223.133-.379.213-.781.238-1.21.026.429.104.831.237 1.21.164.467.404.874.714 1.224.31.347.692.62 1.142.819z"/>
    </g>
    <defs>
        <clipPath id="9ihpww29za">
            <path fill="#fff" d="M0 0h105v24H0z"/>
        </clipPath>
    </defs>
</svg>
