<svg xmlns="http://www.w3.org/2000/svg" width="196" height="54" viewBox="0 0 196 54">
    <g fill="none" fill-rule="evenodd">
        <g fill="#1F1F1F">
            <g>
                <g>
                    <g>
                        <path d="M97.671 36.722L102.717 36.722 102.717 25.425 116.375 25.425 116.375 20.617 102.717 20.617 102.717 13.914 117.162 13.914 117.162 9.108 97.671 9.108z" transform="translate(-128 -732) translate(80 712) translate(48 20) translate(0 4)"/>
                        <g>
                            <path d="M132.613 32.313c-2.42 0-4.587-.906-6.441-2.694-1.858-1.78-2.8-4.091-2.8-6.866 0-2.641.91-4.89 2.707-6.687 1.794-1.815 4.027-2.734 6.637-2.734 2.619 0 4.846.919 6.62 2.734 1.786 1.806 2.69 4.08 2.69 6.756 0 2.643-.917 4.916-2.723 6.754-1.809 1.816-4.06 2.737-6.69 2.737m.155-23.789c-3.957 0-7.392 1.406-10.208 4.176-2.834 2.774-4.27 6.141-4.27 10.01 0 4.394 1.577 8 4.688 10.719 2.814 2.449 6.038 3.69 9.583 3.69 3.999 0 7.463-1.4 10.294-4.158 2.821-2.75 4.252-6.147 4.252-10.097 0-3.922-1.424-7.33-4.23-10.125-2.797-2.797-6.199-4.215-10.109-4.215M166.318 17.031c0 2.617-1.645 3.477-5.18 3.477h-6.977V13.83h7.133c3.428 0 5.024.771 5.024 3.201m3.355 5.073c1.069-1.34 1.588-2.699 1.588-4.894 0-2.634-.982-4.562-2.766-6.085-1.649-1.394-4.321-2.101-7.943-2.101h-11.436v27.613h5.045V25.268h6.11l5.517 11.37h5.86l-6.021-11.996c1.742-.498 3.101-1.35 4.046-2.538M195.224 13.821L195.224 9.015 173.301 9.015 173.301 36.629 195.224 36.629 195.224 31.822 178.349 31.822 178.349 25.273 193.878 25.273 193.878 20.467 178.349 20.467 178.349 13.821zM91.797 5.75L76.991 40.065 81.597 40.065 96.422 5.75zM64.75 25.305h5.928l-.03.013c.09 2.22-.394 3.937-1.8 5.49-1.026 1.134-2.66 1.594-4.704 1.594-1.39 0-2.586-.273-3.557-.811-.972-.539-1.771-1.264-2.374-2.155-.602-.887-1.046-1.9-1.32-3.01-.273-1.102-.41-2.254-.41-3.425 0-1.22.137-2.417.41-3.557.273-1.147.716-2.185 1.317-3.087.604-.905 1.402-1.637 2.373-2.176.972-.538 2.167-.81 3.553-.81 1.496 0 2.788.4 3.841 1.189.943.706 1.615 1.744 2.011 3.078h5.616c-.191-1.337-.59-2.547-1.196-3.6-.686-1.193-1.568-2.21-2.62-3.022-1.057-.813-2.256-1.438-3.564-1.857-.414-.132-.869-.268-1.391-.361-.85-.152-1.766-.23-2.727-.23-.968 0-1.95.078-2.919.23-.742.117-1.858.463-2.713.84-1.667.74-3.092 1.771-4.235 3.067-1.145 1.298-2.036 2.84-2.647 4.585-.485 1.384-.848 3.455-.883 4.52l-.01.321c-.029.814-.04 1.151.01 2.028.056.976.394 3.06.884 4.435.611 1.72 1.503 3.236 2.649 4.509 1.146 1.272 2.572 2.283 4.239 3.009 1.666.724 3.573 1.091 5.666 1.091 1.32 0 2.647-.276 3.942-.82 1.551-.654 2.614-1.447 3.552-2.651l.072-.135.664 2.992h3.733v-16.01H64.75v4.726zM8.323 37.127c-3.799-3.798-5.89-8.848-5.89-14.22 0-5.371 2.091-10.42 5.89-14.219 3.798-3.798 8.848-5.89 14.22-5.89 5.37 0 10.421 2.092 14.219 5.89 3.798 3.798 5.89 8.848 5.89 14.22 0 5.37-2.092 10.421-5.89 14.22-3.798 3.797-8.848 5.89-14.22 5.89-5.371 0-10.421-2.093-14.22-5.89m-1.72-30.16C2.346 11.226 0 16.886 0 22.908c0 6.02 2.345 11.682 6.603 15.94 4.257 4.257 9.918 6.602 15.94 6.602 6.02 0 11.681-2.345 15.94-6.603 4.256-4.257 6.601-9.918 6.601-15.94 0-6.02-2.345-11.681-6.602-15.94C34.224 2.71 28.563.367 22.542.367c-6.02 0-11.682 2.344-15.94 6.602" transform="translate(-128 -732) translate(80 712) translate(48 20) translate(0 4) translate(0 .085)"/>
                            <path d="M26.451 22.492c.428.189.882.33 1.364.422-.482.093-.937.234-1.364.423-.84.372-1.548.885-2.126 1.54-.577.653-1.02 1.42-1.327 2.298-.248.707-.394 1.463-.442 2.264-.049-.801-.195-1.557-.442-2.264-.308-.878-.75-1.645-1.328-2.299-.577-.654-1.285-1.167-2.125-1.539-.428-.189-.882-.33-1.364-.423.482-.093.936-.233 1.363-.422.84-.372 1.549-.885 2.126-1.54.577-.654 1.02-1.42 1.327-2.299.248-.708.395-1.466.443-2.27.048.804.194 1.562.443 2.27.307.879.75 1.645 1.327 2.3.577.654 1.285 1.167 2.125 1.539zm3.078-6.076h5.774V8.982h-1.925l-.308 1.56c-.54-.692-1.137-1.176-1.791-1.452-.655-.275-1.316-.413-1.984-.413-1.053 0-1.999.183-2.84.548-.84.366-1.55.87-2.128 1.51-.577.642-1.02 1.396-1.328 2.261-.249.698-.395 1.442-.443 2.228-.048-.786-.195-1.53-.443-2.228-.308-.865-.751-1.62-1.328-2.26-.578-.642-1.288-1.145-2.128-1.51-.842-.366-1.788-.55-2.84-.55-.668 0-1.33.139-1.984.414-.655.276-1.252.76-1.791 1.452l-.308-1.56H9.809v7.434h5.774v-2.252h-3.04c.09-.964.407-1.7.953-2.208.546-.507 1.32-.76 2.321-.76.68 0 1.26.13 1.735.394.475.263.86.612 1.155 1.049.296.436.511.927.646 1.472.135.545.202 1.107.202 1.684 0 .603-.067 1.188-.202 1.752-.135.565-.35 1.068-.645 1.51-.295.444-.68.797-1.155 1.06s-1.052.394-1.732.394c-.731 0-1.354-.193-1.867-.577-.513-.386-.86-.963-1.039-1.732h-2.887c.077.782.29 1.475.636 2.078.346.603.785 1.11 1.318 1.52.532.41 1.129.72 1.79.933.23.073.463.133.7.181-.236.049-.47.108-.7.182-.66.212-1.258.523-1.79.934-.532.41-.972.916-1.318 1.519-.347.603-.558 1.295-.635 2.078h2.886c.18-.77.526-1.347 1.04-1.732.513-.385 1.135-.577 1.867-.577.68 0 1.257.131 1.732.394.474.263.86.616 1.155 1.059.294.443.51.946.644 1.511.135.564.202 1.148.202 1.751 0 .578-.067 1.14-.202 1.684-.135.546-.35 1.037-.645 1.473-.295.437-.681.786-1.156 1.049-.475.263-1.053.395-1.734.395-1.002 0-1.776-.254-2.322-.762-.545-.507-.863-1.243-.953-2.207h3.04v-2.253H9.81v7.434h1.924l.308-1.558c.54.691 1.137 1.175 1.791 1.45.655.276 1.316.414 1.984.414 1.053 0 1.999-.183 2.84-.548.84-.366 1.55-.87 2.128-1.51.577-.642 1.02-1.396 1.328-2.262.248-.696.394-1.436.443-2.22.048.784.195 1.524.443 2.22.307.866.75 1.62 1.328 2.262.578.64 1.287 1.144 2.128 1.51.84.365 1.787.548 2.84.548.668 0 1.328-.138 1.984-.413.654-.276 1.251-.76 1.79-1.451l.308 1.558h1.925v-7.434h-5.774v2.253h3.04c-.089.964-.407 1.7-.953 2.207-.546.508-1.32.762-2.321.762-.68 0-1.259-.132-1.734-.395-.475-.263-.86-.612-1.156-1.049-.295-.436-.51-.927-.646-1.473-.134-.545-.202-1.106-.202-1.684 0-.603.068-1.187.202-1.751.135-.565.35-1.068.645-1.511.295-.443.68-.796 1.155-1.059.475-.263 1.052-.394 1.732-.394.731 0 1.354.192 1.867.577.513.385.86.963 1.04 1.732h2.886c-.077-.783-.289-1.475-.635-2.078-.346-.603-.786-1.11-1.319-1.52-.532-.41-1.128-.721-1.79-.933-.23-.074-.463-.133-.699-.182.237-.048.47-.108.7-.181.66-.212 1.258-.523 1.79-.933.533-.41.972-.917 1.318-1.52.347-.603.559-1.296.635-2.078h-2.886c-.18.77-.526 1.346-1.04 1.732-.513.384-1.135.577-1.867.577-.68 0-1.257-.131-1.732-.394-.474-.263-.86-.616-1.155-1.06-.294-.442-.51-.945-.644-1.51-.135-.564-.202-1.149-.202-1.752 0-.577.067-1.139.202-1.684.135-.545.35-1.036.646-1.472.294-.437.68-.786 1.155-1.05.475-.263 1.053-.394 1.734-.394 1.002 0 1.776.254 2.322.761.545.508.863 1.244.953 2.208h-3.04v2.252z" transform="translate(-128 -732) translate(80 712) translate(48 20) translate(0 4) translate(0 .085)"/>
                        </g>
                    </g>
                </g>
            </g>
        </g>
    </g>
</svg>